<?xml version="1.0" encoding="utf-8"?>
<!-- Generator: Adobe Illustrator 28.0.0, SVG Export Plug-In . SVG Version: 6.00 Build 0)  -->
<svg version="1.1" xmlns="http://www.w3.org/2000/svg" xmlns:xlink="http://www.w3.org/1999/xlink" x="0px" y="0px"
	 viewBox="0 0 1000 1000" style="enable-background:new 0 0 1000 1000;" xml:space="preserve">
<style type="text/css">
	.st0{display:none;}
	.st1{display:inline;}
	.st2{fill:#F7F9FC;}
	.st3{fill:#49A17B;}
	.st4{fill:#7631CD;}
	.st5{fill:#404041;}
	.st6{fill:#510C76;}
	.st7{fill:#15345B;}
	.st8{fill:#120F11;}
	.st9{fill:#6D809B;}
	.st10{fill:#B52025;}
	.st11{fill:#FFFFFF;}
	.st12{fill:#CF2329;}
	.st13{fill:#1D3B60;}
	.st14{opacity:0.6;}
	.st15{clip-path:url(#SVGID_00000076587728841367538230000004928869186166196131_);}
	.st16{clip-path:url(#SVGID_00000077287001098821636880000006216587692934914199_);fill:#5293C9;}
	
		.st17{clip-path:url(#SVGID_00000057141549080236952520000015114180660787221916_);fill:url(#SVGID_00000137830053189491130230000013930866016417224586_);}
	.st18{clip-path:url(#SVGID_00000000223414460340515540000008837353265187955596_);fill:#1D3B60;}
	
		.st19{clip-path:url(#SVGID_00000160178602069125336850000012420569681902890375_);fill:url(#SVGID_00000054257795961377453700000011821813893696343194_);}
	.st20{clip-path:url(#SVGID_00000069391473999936593080000005966003576565511316_);fill:#2D6683;}
	
		.st21{clip-path:url(#SVGID_00000036228193739718874960000009222342308213320343_);fill:url(#SVGID_00000154417976941479754240000004161575900360401575_);}
	.st22{clip-path:url(#SVGID_00000049216852539196683060000014134539398259546770_);fill:#7BADC5;}
	
		.st23{clip-path:url(#SVGID_00000058561761799939442780000003114876004030729891_);fill:url(#SVGID_00000125567008960577158110000011475432970349763208_);}
	.st24{opacity:0.3;}
	.st25{clip-path:url(#SVGID_00000101083093964737059490000003153608103965514130_);}
	.st26{clip-path:url(#SVGID_00000068679138271997966230000010416789748844049032_);fill:#5293C9;}
	
		.st27{clip-path:url(#SVGID_00000046300165316071003100000001554363440430422936_);fill:url(#SVGID_00000031886028320458356350000013911321505245868479_);}
	.st28{clip-path:url(#SVGID_00000137111640374115024320000010487870959820728450_);fill:#1D3B60;}
	
		.st29{clip-path:url(#SVGID_00000154397414998669977540000007864414861465575088_);fill:url(#SVGID_00000137132380941702557620000003063246006581931700_);}
	.st30{clip-path:url(#SVGID_00000090270496501733169090000017325557700296333961_);fill:#2D6683;}
	
		.st31{clip-path:url(#SVGID_00000130641564063507435160000017478097335077758851_);fill:url(#SVGID_00000096754534195310216220000002681533091202015631_);}
	.st32{clip-path:url(#SVGID_00000041258282280185210200000011849261792910049725_);fill:#7BADC5;}
	
		.st33{clip-path:url(#SVGID_00000101099655857224200420000016493652596075453845_);fill:url(#SVGID_00000114046574925301779260000005578411285830955960_);}
	.st34{opacity:0.1;}
	.st35{clip-path:url(#SVGID_00000138543368418354736340000003335468460855736965_);}
	.st36{clip-path:url(#SVGID_00000084513014388908956880000005959267012338420905_);fill:#5293C9;}
	
		.st37{clip-path:url(#SVGID_00000018199506066334308030000015419549201459975335_);fill:url(#SVGID_00000064316656395643526870000000100937497238577073_);}
	.st38{clip-path:url(#SVGID_00000115488643540985424040000018053679903794260619_);fill:#1D3B60;}
	
		.st39{clip-path:url(#SVGID_00000139257864137336899750000008015813253861025419_);fill:url(#SVGID_00000116229027367412672680000008295638163807802758_);}
	.st40{clip-path:url(#SVGID_00000019670332784937525730000004712269306724573349_);fill:#2D6683;}
	
		.st41{clip-path:url(#SVGID_00000012437956159147747650000012880199608024448130_);fill:url(#SVGID_00000138560679201963838380000005062453365450735021_);}
	.st42{clip-path:url(#SVGID_00000170258123254719035230000000439236299139294634_);fill:#7BADC5;}
	
		.st43{clip-path:url(#SVGID_00000103960550018490544450000008002438615529601201_);fill:url(#SVGID_00000021077057328311392610000014502778011690707876_);}
	.st44{fill:#5293C9;}
	.st45{fill:#2D6683;}
	.st46{fill:#7BADC5;}
	.st47{fill:#CE1D5E;}
	.st48{fill:#CE0E2D;}
	.st49{fill:#F1F1F1;}
	.st50{fill:#010101;}
	.st51{fill:#CD9967;}
	.st52{fill:#BB8D5C;}
	.st53{fill:#AE807A;}
	.st54{fill:#AC8079;}
	.st55{fill:#262626;}
	.st56{fill:#80B041;}
	.st57{fill:#1985C1;}
	.st58{fill:#293678;}
	.st59{fill:#1EBBB9;}
	.st60{fill:#333333;}
	.st61{fill:#76519B;}
	.st62{fill:#5F9E81;}
	.st63{fill:#439778;}
	.st64{fill:#304043;}
	.st65{fill:#3F8E8B;}
	.st66{fill:#808081;}
	.st67{fill:none;stroke:#808081;stroke-width:0.3838;stroke-miterlimit:10;}
	.st68{fill:#221F20;}
	.st69{fill:#3B8569;}
	.st70{fill:#5F6163;}
	.st71{fill:#A6A8AB;}
	.st72{fill:#8B8072;}
	.st73{fill:#22516F;}
	
		.st74{clip-path:url(#SVGID_00000103948071650295451490000003927751507877487504_);fill:url(#SVGID_00000130643713549819062360000008380505890421275823_);}
	
		.st75{clip-path:url(#SVGID_00000013173709824200215590000003000952579560424851_);fill:url(#SVGID_00000021117318998091016440000004396569690078124722_);}
	.st76{fill:#76777A;}
	.st77{fill:#51B187;}
	
		.st78{clip-path:url(#SVGID_00000012467450358476779850000013983448849753381792_);fill:url(#SVGID_00000056417416951058566280000017388722099274461884_);}
	
		.st79{clip-path:url(#SVGID_00000003102931145108190440000002611685941404512643_);fill:url(#SVGID_00000007394270337811727290000013414774446137036417_);}
	
		.st80{clip-path:url(#SVGID_00000083077186930752848310000006635129128746011815_);fill:url(#SVGID_00000112630577165634508310000012244819681854968732_);}
	
		.st81{clip-path:url(#SVGID_00000160158726587571296610000012395353069538667667_);fill:url(#SVGID_00000164510805864930815540000004957148711656313486_);}
	
		.st82{clip-path:url(#SVGID_00000102514431049547023040000005311048308185728161_);fill:url(#SVGID_00000063598742378255308940000011557796274494312324_);}
	
		.st83{clip-path:url(#SVGID_00000165201965519109796960000013562684532386544795_);fill:url(#SVGID_00000170281070613591544430000017155273635628306336_);}
	
		.st84{clip-path:url(#SVGID_00000041284310456353696600000002678705928895440264_);fill:url(#SVGID_00000129893984111570570710000010678924439142667676_);}
	
		.st85{clip-path:url(#SVGID_00000145044600371691143540000008148512658710287783_);fill:url(#SVGID_00000140735814213907206950000011024168923722608785_);}
	
		.st86{clip-path:url(#SVGID_00000019639740492276373710000008099334049116480394_);fill:url(#SVGID_00000136412352298754359520000001560236061169867693_);}
	
		.st87{clip-path:url(#SVGID_00000103249915146261954100000004644843135960868775_);fill:url(#SVGID_00000101099544944312804000000003340954069781340082_);}
	
		.st88{clip-path:url(#SVGID_00000068640364961044611010000008201811585819377836_);fill:url(#SVGID_00000034789152877609649260000010178079959425131668_);}
	
		.st89{clip-path:url(#SVGID_00000101074925710296097580000001403443979144911540_);fill:url(#SVGID_00000029009435870233535290000002554743990440146839_);}
	
		.st90{clip-path:url(#SVGID_00000148662640231712847400000004222795268751884940_);fill:url(#SVGID_00000096047398720771489100000017147564931594293378_);}
	
		.st91{clip-path:url(#SVGID_00000004515261370332121980000013601622958913248401_);fill:url(#SVGID_00000026123125567064406480000006351243293628681612_);}
	
		.st92{clip-path:url(#SVGID_00000043419662962725771430000006470089208357749143_);fill:url(#SVGID_00000071545337343535109990000006139774012026311050_);}
	
		.st93{clip-path:url(#SVGID_00000106130478356653199880000003772834526990456243_);fill:url(#SVGID_00000143603535066333744380000016466518633944914610_);}
	
		.st94{clip-path:url(#SVGID_00000021809497744182556890000000609623496524261305_);fill:url(#SVGID_00000023271657592121460130000001767821009733006519_);}
	
		.st95{clip-path:url(#SVGID_00000087372289857685327820000011702726245986120350_);fill:url(#SVGID_00000126324592174176875240000000277493164478128042_);}
	
		.st96{clip-path:url(#SVGID_00000038378745050889175550000004079848359058376837_);fill:url(#SVGID_00000093899338413670453070000012812740991903140030_);}
	
		.st97{clip-path:url(#SVGID_00000031896845202022308480000010696148664066078115_);fill:url(#SVGID_00000098178953912138382590000001429270247450046615_);}
	
		.st98{clip-path:url(#SVGID_00000021116977145587442750000002658620195895030191_);fill:url(#SVGID_00000168102558679469398300000016159402685151252899_);}
	
		.st99{clip-path:url(#SVGID_00000124868717250638911890000012298155247505539462_);fill:url(#SVGID_00000141428354458675054050000002467249616613721264_);}
	
		.st100{clip-path:url(#SVGID_00000114032737918450904370000001932560395735007110_);fill:url(#SVGID_00000064343777499928369080000004046381951307035018_);}
	
		.st101{clip-path:url(#SVGID_00000175318743305155695560000014308234461474008987_);fill:url(#SVGID_00000088103704991167593500000001295243854493303692_);}
	
		.st102{clip-path:url(#SVGID_00000114768180145582358260000015933335066073060240_);fill:url(#SVGID_00000151531102851518186130000018375144923722855079_);}
	
		.st103{clip-path:url(#SVGID_00000033358029293419420590000010603254395595317395_);fill:url(#SVGID_00000078723693595013831280000005840613743164751239_);}
	
		.st104{clip-path:url(#SVGID_00000053545987499586912390000004115480500539693496_);fill:url(#SVGID_00000134930103424986400760000017020276993184483740_);}
	
		.st105{clip-path:url(#SVGID_00000076579645676893802310000001019568560614894259_);fill:url(#SVGID_00000063602258683186093610000007806315693100579246_);}
	
		.st106{clip-path:url(#SVGID_00000106129999778369260160000002226487922151849121_);fill:url(#SVGID_00000132089386968571221720000012844181761252745138_);}
	
		.st107{clip-path:url(#SVGID_00000037681641350315571130000007175840482615154602_);fill:url(#SVGID_00000082369816238427323720000002438450792310814891_);}
	
		.st108{clip-path:url(#SVGID_00000050650172898925439880000008643033944361756084_);fill:url(#SVGID_00000120517614426876503980000008970326181587946427_);}
	
		.st109{clip-path:url(#SVGID_00000182523483738031512270000003988413323055494582_);fill:url(#SVGID_00000127726890851412661070000001186129440739147417_);}
	
		.st110{clip-path:url(#SVGID_00000152962594778499223370000006091486749143706288_);fill:url(#SVGID_00000021804925171367937570000007419040660521379989_);}
	
		.st111{clip-path:url(#SVGID_00000048476140618137812230000006380532929395533470_);fill:url(#SVGID_00000097496209671857126570000017464897827700316302_);}
	
		.st112{clip-path:url(#SVGID_00000137121210567580697840000016164452497178664854_);fill:url(#SVGID_00000042695180179316402810000005778719343470063514_);}
	
		.st113{clip-path:url(#SVGID_00000132781471481811442600000001310753873305780114_);fill:url(#SVGID_00000028289737631812490750000017166308247999715215_);}
	
		.st114{clip-path:url(#SVGID_00000155826224451872180270000004545971744771851936_);fill:url(#SVGID_00000083767496925628489730000011887805375606895534_);}
	
		.st115{clip-path:url(#SVGID_00000127012254417070162580000010770918262211394232_);fill:url(#SVGID_00000073697936120925406800000002300784988945078158_);}
	
		.st116{clip-path:url(#SVGID_00000121244534823336015510000017017541246313390257_);fill:url(#SVGID_00000176732319602113082020000014772497029188481675_);}
	
		.st117{clip-path:url(#SVGID_00000170243373845495871880000008638183523259716511_);fill:url(#SVGID_00000123401061487690052970000009341987800400337024_);}
	
		.st118{clip-path:url(#SVGID_00000171698023022887368550000010352406706516272282_);fill:url(#SVGID_00000119080262171081707890000002723001630059638167_);}
	
		.st119{clip-path:url(#SVGID_00000044174551014162538070000004254512543512820396_);fill:url(#SVGID_00000060013975629972811180000010079026604084230274_);}
	
		.st120{clip-path:url(#SVGID_00000104698195606517704350000001854514218464723628_);fill:url(#SVGID_00000056387138692911517290000001978951151574257330_);}
	
		.st121{clip-path:url(#SVGID_00000051363664410659826580000000573535408355006603_);fill:url(#SVGID_00000049904416994713837920000009092023339227005091_);}
	
		.st122{clip-path:url(#SVGID_00000046341347504420668120000015625055667671583633_);fill:url(#SVGID_00000156584768411077958260000010638910526457571456_);}
	
		.st123{clip-path:url(#SVGID_00000125579341954670961690000015068597849613197247_);fill:url(#SVGID_00000066499579059587426570000018131076544637054086_);}
	
		.st124{clip-path:url(#SVGID_00000057826542301385468210000013705946280953038004_);fill:url(#SVGID_00000129179493183279877720000013299223963316827281_);}
	
		.st125{clip-path:url(#SVGID_00000066506848798206838070000010739275291391582121_);fill:url(#SVGID_00000069397774532511185390000008538145838451293332_);}
	
		.st126{clip-path:url(#SVGID_00000155137522565776159120000008100537428365910709_);fill:url(#SVGID_00000070809799704589064990000011585130993370069921_);}
	
		.st127{clip-path:url(#SVGID_00000121992964859589893040000012199977222075623858_);fill:url(#SVGID_00000119825808691573159360000001921538623015229324_);}
	
		.st128{clip-path:url(#SVGID_00000134962567458606918790000016229713295820240058_);fill:url(#SVGID_00000066492873478419243600000015957066090710213293_);}
	
		.st129{clip-path:url(#SVGID_00000183927482657184625260000012779155827090453159_);fill:url(#SVGID_00000107556480460317515020000000657961482245826973_);}
	
		.st130{clip-path:url(#SVGID_00000125560670041630350870000008936627426282956190_);fill:url(#SVGID_00000152246497823806097850000010083319601951805372_);}
	
		.st131{clip-path:url(#SVGID_00000097458703393438369540000006551137258283892893_);fill:url(#SVGID_00000078724409548866435390000016436106151345032834_);}
	.st132{fill:#1B685C;}
	.st133{fill:#646B70;}
	
		.st134{clip-path:url(#SVGID_00000070106594348889518730000001092442928892831923_);fill:url(#SVGID_00000076579977248997811680000002074407879810892463_);}
	
		.st135{clip-path:url(#SVGID_00000160909010089950656060000000847985708154063536_);fill:url(#SVGID_00000116210016182554725640000010127161687404119694_);}
	
		.st136{clip-path:url(#SVGID_00000151534861457460537420000013061338744404503188_);fill:url(#SVGID_00000182500332260776024530000008965158668382467727_);}
	
		.st137{clip-path:url(#SVGID_00000054951467438058385600000004477337222514279082_);fill:url(#SVGID_00000126291382825848923150000002620845907113096075_);}
	
		.st138{clip-path:url(#SVGID_00000018202584608924955740000004191945790009427095_);fill:url(#SVGID_00000026127248231444427470000012820226351956353417_);}
	
		.st139{clip-path:url(#SVGID_00000068658272251713509630000008135419634464407719_);fill:url(#SVGID_00000166642774072427219730000006156841626828098233_);}
	
		.st140{clip-path:url(#SVGID_00000085229342703948164730000000217265689254192797_);fill:url(#SVGID_00000103257778612410791470000002303348277817938855_);}
	
		.st141{clip-path:url(#SVGID_00000133513734059219651820000001019473885375010993_);fill:url(#SVGID_00000154387486723228899990000013061536975779394196_);}
	
		.st142{clip-path:url(#SVGID_00000153683742165801697620000004613177534589103528_);fill:url(#SVGID_00000018930622928635051860000017019503382271085489_);}
	
		.st143{clip-path:url(#SVGID_00000097469453784227601810000002985810587359414403_);fill:url(#SVGID_00000080921147275062799820000006586263809624275331_);}
	
		.st144{clip-path:url(#SVGID_00000107588348468347243230000001202084526022162073_);fill:url(#SVGID_00000151511564752858682130000010767169466011207817_);}
	
		.st145{clip-path:url(#SVGID_00000119840410477929959120000006116601262613296827_);fill:url(#SVGID_00000013910078304598172290000008816578533854508949_);}
	
		.st146{clip-path:url(#SVGID_00000131361848759956281980000002024508364348367022_);fill:url(#SVGID_00000055702008012288911230000004105433829821650080_);}
	
		.st147{clip-path:url(#SVGID_00000155854510403425001460000003504129829989623966_);fill:url(#SVGID_00000036219021575380375610000013546496399514213798_);}
	
		.st148{clip-path:url(#SVGID_00000062872441372211633720000015737804745274965917_);fill:url(#SVGID_00000143613665854080913070000011726707056086695305_);}
	
		.st149{clip-path:url(#SVGID_00000122691991290307162530000003386064090708201115_);fill:url(#SVGID_00000174575122015036847510000006324693494690891186_);}
	
		.st150{clip-path:url(#SVGID_00000178923807881559801930000011064750095110109835_);fill:url(#SVGID_00000071561595989087675570000016602113101356230065_);}
	
		.st151{clip-path:url(#SVGID_00000176045567490422248070000008099931932228875424_);fill:url(#SVGID_00000000218929989539653550000005496038098466490765_);}
	
		.st152{clip-path:url(#SVGID_00000044169524953235336520000007384237159082776976_);fill:url(#SVGID_00000063603348634484522320000000497165663837375397_);}
	
		.st153{clip-path:url(#SVGID_00000085245636529716845120000011595316617424584884_);fill:url(#SVGID_00000168838433221635795900000007072886177872489914_);}
	
		.st154{clip-path:url(#SVGID_00000134955113676385394760000006703896621517893009_);fill:url(#SVGID_00000021094618919713799410000006609714552604194481_);}
	
		.st155{clip-path:url(#SVGID_00000030453642519898193480000010286903673047333550_);fill:url(#SVGID_00000090295844467373758550000008626898300390811792_);}
	
		.st156{clip-path:url(#SVGID_00000129921721299899874440000007568338730455379590_);fill:url(#SVGID_00000177468466684817357700000000994025152631527562_);}
	
		.st157{clip-path:url(#SVGID_00000013884599795952322330000002511558640678852017_);fill:url(#SVGID_00000032610846433372920580000015193467989872367528_);}
	
		.st158{clip-path:url(#SVGID_00000117638491211990096840000015755838080772846252_);fill:url(#SVGID_00000057841843289497112010000010247505453799500695_);}
	
		.st159{clip-path:url(#SVGID_00000155132310836936998610000003336265160461037963_);fill:url(#SVGID_00000041288329094872645420000012786347172572648611_);}
	
		.st160{clip-path:url(#SVGID_00000170960233050901345100000013906633038617160849_);fill:url(#SVGID_00000155832599732329943120000009719202955344834485_);}
	
		.st161{clip-path:url(#SVGID_00000114073930035372745290000017865154195356848808_);fill:url(#SVGID_00000071519222445046438150000017467302026974591926_);}
	
		.st162{clip-path:url(#SVGID_00000152250843439354092160000002502351568618828969_);fill:url(#SVGID_00000082334710397045234740000014420787082849395608_);}
	
		.st163{clip-path:url(#SVGID_00000179627309820312889610000011614266692924268198_);fill:url(#SVGID_00000005970005758959866080000009726212409203593142_);}
	
		.st164{clip-path:url(#SVGID_00000092452364104030013110000016455156891697795772_);fill:url(#SVGID_00000104700591446681686720000013626167491193929137_);}
	
		.st165{clip-path:url(#SVGID_00000164504796489889709280000010780926117857430683_);fill:url(#SVGID_00000054944750458307234690000008825966641747761071_);}
	
		.st166{clip-path:url(#SVGID_00000116958378041044074960000009452015590257840825_);fill:url(#SVGID_00000074421537580925226110000015158174515087161023_);}
	
		.st167{clip-path:url(#SVGID_00000173162643251447566060000010833274291932707759_);fill:url(#SVGID_00000090286394834827052630000015075774603250860213_);}
	
		.st168{clip-path:url(#SVGID_00000128456581915869954620000012417873766458995600_);fill:url(#SVGID_00000048487606826919155220000011093248799648453260_);}
	
		.st169{clip-path:url(#SVGID_00000070117079810800741150000018335994417514921357_);fill:url(#SVGID_00000037682460389159306270000002554261815709214857_);}
	
		.st170{clip-path:url(#SVGID_00000152224224314635434500000007913556973251111296_);fill:url(#SVGID_00000090263484993957321590000009870814324147615127_);}
	
		.st171{clip-path:url(#SVGID_00000015320293234589773320000017291910459461985944_);fill:url(#SVGID_00000145738193673094325580000007945772353492638592_);}
	
		.st172{clip-path:url(#SVGID_00000029741404325283274700000002463646126978711224_);fill:url(#SVGID_00000093886590961164199040000001696554848958370699_);}
	
		.st173{clip-path:url(#SVGID_00000065775036176461906740000008716739021439627153_);fill:url(#SVGID_00000091708886048957899350000017536621643013775007_);}
	
		.st174{clip-path:url(#SVGID_00000039097035937743419810000002667268786453181873_);fill:url(#SVGID_00000052824816709940694890000007150597144116931258_);}
	
		.st175{clip-path:url(#SVGID_00000000204147622432490320000015289566849481141158_);fill:url(#SVGID_00000109714288059155383930000010969684138160930708_);}
	
		.st176{clip-path:url(#SVGID_00000180353723652271744220000013689900751516985778_);fill:url(#SVGID_00000064336056258452485180000018160363559612861083_);}
	
		.st177{clip-path:url(#SVGID_00000066517304812622939430000008512151810253558670_);fill:url(#SVGID_00000081616214532990100430000014239752225444752568_);}
	
		.st178{clip-path:url(#SVGID_00000109714829515949781540000004188097200147298966_);fill:url(#SVGID_00000178183699794069703930000005934014954807277208_);}
	
		.st179{clip-path:url(#SVGID_00000065772720695566526300000005006525104086590856_);fill:url(#SVGID_00000148649663264351850650000016607584446425792656_);}
	
		.st180{clip-path:url(#SVGID_00000114792748515627247080000003091927465383502500_);fill:url(#SVGID_00000042717249291956408530000013397710891186536596_);}
	
		.st181{clip-path:url(#SVGID_00000178173375690226018970000018093905921368810373_);fill:url(#SVGID_00000007386021575302181840000015738530223681317024_);}
	
		.st182{clip-path:url(#SVGID_00000180353740126440088580000015593743524207636637_);fill:url(#SVGID_00000029731560958937346900000018201305824405142661_);}
	
		.st183{clip-path:url(#SVGID_00000026132918031536482650000001902735881277524634_);fill:url(#SVGID_00000075148587471266304600000005052712150904553919_);}
	
		.st184{clip-path:url(#SVGID_00000041987196562494899150000007867895677493738641_);fill:url(#SVGID_00000137840070163817396300000016605438591305897377_);}
	
		.st185{clip-path:url(#SVGID_00000086670058036132914020000006084748829040171199_);fill:url(#SVGID_00000037688706164534177250000010091533479097520801_);}
	
		.st186{clip-path:url(#SVGID_00000137111505667026963660000010258663322526881190_);fill:url(#SVGID_00000131332538571307145150000002361145616801284781_);}
	
		.st187{clip-path:url(#SVGID_00000055687307416327295560000001433948498343315631_);fill:url(#SVGID_00000121989328827579650550000012042944696724434871_);}
	.st188{fill:#556273;}
	.st189{fill:#4DA656;}
	.st190{fill:#6EBB9C;}
	.st191{fill:#469694;}
	.st192{fill:#95C46E;}
	.st193{fill:#8FA3D0;}
	.st194{fill:#6163A6;}
	.st195{fill:#005C82;}
	.st196{fill:#1FAC80;}
	.st197{fill:#2C2E6C;}
	.st198{clip-path:url(#SVGID_00000090266417187699299780000017617270964026210197_);}
	.st199{clip-path:url(#SVGID_00000135693419598182023970000015274664673503546784_);}
	.st200{clip-path:url(#SVGID_00000023283044947717031870000005367113954042397593_);}
	.st201{clip-path:url(#SVGID_00000113320452741702607770000013414495171459978162_);}
	.st202{clip-path:url(#SVGID_00000095319985085804717980000008528420217560510906_);}
	.st203{clip-path:url(#SVGID_00000070807557484091639480000002643684984952786359_);}
	.st204{clip-path:url(#SVGID_00000072237869003073101560000011856610162790811550_);}
	.st205{clip-path:url(#SVGID_00000075842210026907354880000001287711979788093354_);}
	.st206{fill:#383838;}
	.st207{clip-path:url(#SVGID_00000009572766092057613600000015791279242456693641_);fill:#383838;}
	.st208{clip-path:url(#SVGID_00000084527923552543967020000016885631462755230376_);}
	.st209{fill:#231F20;}
	.st210{fill:#BABDBB;}
	.st211{fill:#6EB0DE;}
	.st212{fill:#77807C;}
	.st213{fill:#4D4E4E;}
	.st214{fill:#53AB73;}
	.st215{fill:#408FA6;}
	.st216{fill:#3D8AA8;}
	.st217{fill:#3C83AA;}
	.st218{fill:#3A81AB;}
	.st219{fill:#387FAC;}
	.st220{fill:#387EAE;}
	.st221{fill:#416689;}
	.st222{fill:#58B3AC;}
	.st223{fill:#A42F35;}
	.st224{fill:#4E5052;}
	.st225{fill:#8ABD57;}
	.st226{fill:#1E1E1E;}
	.st227{fill:#494949;}
	.st228{fill:url(#SVGID_00000047038191944399038320000018289011367135690398_);}
	.st229{fill:#1D1D1B;}
	.st230{fill:#49A057;}
	.st231{fill:#D74A57;}
	.st232{fill:#3A7CBB;}
	.st233{fill:#F2BA56;}
	.st234{fill:#480986;}
	.st235{fill:#EB4B62;}
	.st236{fill:url(#SVGID_00000027600954518780214130000017338987907686992819_);}
	.st237{fill:url(#SVGID_00000080897772744745521410000000409549138696326029_);}
	.st238{fill:url(#SVGID_00000000934294710044762820000017244750800670477727_);}
	.st239{fill:url(#SVGID_00000092455122227035497570000016090376304149240502_);}
	.st240{fill:url(#SVGID_00000116943666804886374280000012451878303721705878_);}
	.st241{fill:url(#SVGID_00000049211967644642625870000004184636837867494325_);}
	.st242{fill:url(#SVGID_00000163757580932207541790000010407011231741435836_);}
	.st243{fill:#2E2566;}
	.st244{fill:url(#SVGID_00000183941243815303328750000016927210116437655432_);}
	.st245{fill:url(#SVGID_00000088816834133874508210000012542236988201593535_);}
	.st246{fill:url(#SVGID_00000093880719841063821360000014026320513557601921_);}
	.st247{fill:url(#SVGID_00000181786014506493455030000010630577066353141947_);}
	.st248{opacity:0.7;fill:url(#SVGID_00000051373393822482254140000013650349240951924919_);enable-background:new    ;}
	.st249{fill:url(#SVGID_00000062173966881125678710000015018381526805429649_);}
	.st250{fill:url(#SVGID_00000168833896263992849710000017477066115579833023_);}
	.st251{opacity:0.3;fill:url(#SVGID_00000000915959637134627540000003041911988276100528_);enable-background:new    ;}
	.st252{fill:url(#SVGID_00000153698172447329730900000014243973895083300028_);}
	.st253{fill:url(#SVGID_00000155843368903097566720000002792976141208413854_);}
	.st254{fill:url(#SVGID_00000079479408550743162920000002064482544779627672_);}
	.st255{fill:#808080;}
	.st256{fill:url(#SVGID_00000020380972178038344710000000545363397342836409_);}
	.st257{fill:url(#SVGID_00000054972609500037190140000002916869489254678962_);}
	.st258{fill:url(#SVGID_00000126300446723210089640000000371059633824921018_);}
	.st259{fill:url(#SVGID_00000103251733268880736550000015475032846250414726_);}
	.st260{fill:url(#SVGID_00000130626180699666361400000009042057062662323373_);}
	.st261{fill:url(#SVGID_00000146478880346885530860000014864302373039089818_);}
	.st262{fill:url(#SVGID_00000057839285924316805620000001360890564721502389_);}
	.st263{fill:#101460;}
	.st264{fill:#480985;}
	.st265{fill:#EA4B62;}
	.st266{fill:#234899;}
	.st267{fill:#224E9C;}
	.st268{fill:#2355A1;}
	.st269{fill:#2860A9;}
	.st270{fill:#808184;}
	.st271{fill:#224F9D;}
	.st272{fill:#243974;}
	.st273{fill:#215183;}
	.st274{fill:#9F9067;}
	.st275{fill:#09653D;}
	.st276{opacity:0.77;}
	.st277{opacity:0.51;fill:#9F9067;}
	.st278{opacity:0.83;fill:#9F9067;}
	.st279{opacity:0.77;fill:#9F9067;}
	.st280{opacity:0.67;fill:#9F9067;}
	.st281{fill:url(#SVGID_00000120556207840511604150000000210747989602209426_);}
	.st282{fill:#686868;}
	.st283{clip-path:url(#SVGID_00000157287410685828794680000010662493472794209453_);}
	.st284{fill:#C43C4B;}
	.st285{fill:#2E4DBC;}
	.st286{fill:#445275;}
	.st287{fill:#A66B9D;}
	.st288{fill:#BE4933;}
	.st289{fill:#5D4D87;}
	.st290{fill:#D97060;}
	.st291{fill:#D1A742;}
	.st292{fill:#3B857E;}
	.st293{fill:#6CE7AE;}
	.st294{fill-rule:evenodd;clip-rule:evenodd;}
	.st295{fill:#BA271A;}
	.st296{fill:#3A8364;}
	.st297{fill:#8A7830;}
	.st298{fill:url(#Path_70_00000038404926115742937980000013913227093938880442_);}
	.st299{fill:url(#Path_71_00000141450629167554545270000002736786181110570631_);}
	.st300{fill:url(#Path_72_00000110441817031097550220000006894756425014195079_);}
	.st301{fill:url(#Path_73_00000041282307031607990820000017986450567605891762_);}
	.st302{fill:url(#Path_74_00000154424476703458492000000005955769172460313739_);}
	.st303{fill:url(#Path_75_00000175285187614806906300000002466647202471516827_);}
	.st304{fill:url(#Path_76_00000024712057282711647990000007634355846376892829_);}
	.st305{fill:url(#Path_77_00000008830082356121599460000011610020142735863453_);}
	.st306{fill:url(#Path_78_00000103975501687321847210000004845722664649699004_);}
	.st307{fill:url(#Path_79_00000131327240900235188650000014368180386291819925_);}
	.st308{fill:url(#Path_80_00000114769013207431142480000017714420318421274497_);}
	.st309{fill:url(#Path_81_00000127017506922321947550000011952024958263920530_);}
	.st310{fill:url(#Path_82_00000163037793864054373230000015460168175005164442_);}
	.st311{fill:url(#Path_83_00000107559348806767449470000014189776674806921626_);}
	.st312{fill:url(#Path_84_00000074443565111692986080000016862862188397608867_);}
	.st313{fill:url(#Path_85_00000021801416052957076560000001430220125137086655_);}
	.st314{fill:url(#Path_86_00000058567625244532313590000000152774067531375250_);}
	.st315{fill:url(#Path_87_00000107568929640455491050000000382027738880425906_);}
	.st316{fill:url(#Path_88_00000055690336394088527070000009953080900572442031_);}
	.st317{fill:url(#Path_89_00000137830283809686183630000005414455038086481305_);}
	.st318{fill:url(#Path_90_00000093176915309805572280000008555057888436850619_);}
	.st319{fill:url(#Path_91_00000127749560074443028330000006752334210730480056_);}
	.st320{fill:url(#Path_92_00000083802941801106165730000017202715886965155007_);}
	.st321{fill:url(#Path_93_00000156563856900048041760000011502907462987708818_);}
	.st322{fill:url(#Path_94_00000088850502928312744060000007709130138622876080_);}
	.st323{fill:url(#Path_95_00000097484549980397273460000013777213355546065298_);}
	.st324{fill:url(#Path_96_00000080915111698311855600000007553072995271663261_);}
	.st325{fill:url(#Path_97_00000016054810833132571610000003326427573515781041_);}
	.st326{fill:url(#Path_98_00000022563012597980401700000010833691080258266795_);}
	.st327{fill:url(#Path_99_00000142868514542047008740000003517062811846707338_);}
	.st328{fill:url(#Path_100_00000039115799993049837780000015448916736357667987_);}
	.st329{fill:#808082;}
	.st330{fill:#53A46F;}
	.st331{fill:#C6834D;}
	.st332{fill:#20507E;}
	.st333{fill:#E4963F;}
	.st334{fill:#1C474C;}
	.st335{fill:#D3B286;}
	.st336{fill:#131E87;}
	.st337{fill:#357AB4;}
	.st338{fill:#0F1F88;}
	.st339{fill:#2F2C6B;}
	.st340{fill:#5DB2BC;}
	.st341{fill:#26245D;}
	.st342{fill:#DA9061;}
	.st343{fill:#232750;}
	.st344{fill:url(#Path_429_00000049921454359357500690000000758900097783804071_);}
	.st345{filter:url(#Adobe_OpacityMaskFilter);}
	.st346{fill-rule:evenodd;clip-rule:evenodd;fill:#FFFFFF;}
	.st347{mask:url(#mask-2_00000181778887308529790200000000831507762023491979_);fill-rule:evenodd;clip-rule:evenodd;fill:#245870;}
	.st348{filter:url(#Adobe_OpacityMaskFilter_00000119082433347757116910000017833249625121612991_);}
	.st349{mask:url(#mask-2_00000000207326656208497480000003303022884949798805_);fill-rule:evenodd;clip-rule:evenodd;fill:#245870;}
	.st350{filter:url(#Adobe_OpacityMaskFilter_00000045605023526866548280000005829371221828229526_);}
	.st351{mask:url(#mask-2_00000065785558703536194710000007734681589678738564_);fill-rule:evenodd;clip-rule:evenodd;fill:#245870;}
	.st352{filter:url(#Adobe_OpacityMaskFilter_00000018918588085690845130000010413821952530849433_);}
	.st353{mask:url(#mask-2_00000088815109359673616440000012657192332974893215_);fill-rule:evenodd;clip-rule:evenodd;fill:#245870;}
	.st354{filter:url(#Adobe_OpacityMaskFilter_00000183227817266184514280000017566102796350330752_);}
	.st355{mask:url(#mask-2_00000041975301509416525360000006506499995822959531_);fill-rule:evenodd;clip-rule:evenodd;fill:#245870;}
	.st356{filter:url(#Adobe_OpacityMaskFilter_00000127735552968588781660000004462638769856573338_);}
	.st357{mask:url(#mask-2_00000158750128845762389130000005294071396432734107_);fill-rule:evenodd;clip-rule:evenodd;fill:#245870;}
	.st358{fill-rule:evenodd;clip-rule:evenodd;fill:#245870;}
	.st359{fill-rule:evenodd;clip-rule:evenodd;fill:url(#path-4_00000183962786051203145550000002952404870384760480_);}
</style>
<g id="Layer_1" class="st0">
	<g class="st1">
		<g>
			<path class="st2" d="M141,141v718h718V141H141z M753,753H247V247h506V753z"/>
		</g>
	</g>
</g>
<g id="Layer_2">
	<g id="Page-1">
		<g id="Artboard" transform="translate(-2370.000000, -548.000000)">
			<g id="taldeen_logo_cmyk_colored" transform="translate(2370.000000, 548.000000)">
				<g id="Group-8" transform="translate(13.348659, 40.145594)">
					<defs>
						<filter id="Adobe_OpacityMaskFilter" filterUnits="userSpaceOnUse" x="300.55" y="592.74" width="71.65" height="97.75">
							<feColorMatrix  type="matrix" values="1 0 0 0 0  0 1 0 0 0  0 0 1 0 0  0 0 0 1 0"/>
						</filter>
					</defs>
					
						<mask maskUnits="userSpaceOnUse" x="300.55" y="592.74" width="71.65" height="97.75" id="mask-2_00000181778887308529790200000000831507762023491979_">
						<g class="st345">
							<polygon id="path-1_00000029749710466475116930000014636819645049573802_" class="st346" points="300.55,585.22 
								713.12,585.22 713.12,690.86 300.55,690.86 							"/>
						</g>
					</mask>
					<path id="Fill-1" class="st347" d="M364.25,606.22h-19.86v77.32c0,4.4-2.27,6.95-7.94,6.95c-5.68,0-7.95-2.55-7.95-6.95v-77.32
						h-20.01c-5.67,0-7.94-2.84-7.94-6.81c0-3.97,2.27-6.66,7.94-6.66h55.76c5.68,0,7.95,2.69,7.95,6.66
						C372.19,603.38,369.93,606.22,364.25,606.22"/>
					<defs>
						
							<filter id="Adobe_OpacityMaskFilter_00000027567588773522144690000005609661814333563554_" filterUnits="userSpaceOnUse" x="377.45" y="614.87" width="60.72" height="76.04">
							<feColorMatrix  type="matrix" values="1 0 0 0 0  0 1 0 0 0  0 0 1 0 0  0 0 0 1 0"/>
						</filter>
					</defs>
					
						<mask maskUnits="userSpaceOnUse" x="377.45" y="614.87" width="60.72" height="76.04" id="mask-2_00000000207326656208497480000003303022884949798805_">
						<g style="filter:url(#Adobe_OpacityMaskFilter_00000027567588773522144690000005609661814333563554_);">
							<polygon id="path-1_00000121971759000374638150000017138791046697063301_" class="st346" points="300.55,585.22 
								713.12,585.22 713.12,690.86 300.55,690.86 							"/>
						</g>
					</mask>
					<path id="Fill-3" class="st349" d="M423.41,654.74h-7.81c-20.01,0-23.27,6.38-23.27,13.62c0,6.95,2.69,11.64,15.46,11.64
						c5.1,0,11.5-1.13,15.61-2.13V654.74z M438.17,680.13c0,4.26-1.71,6.53-5.67,7.52c-5.54,1.42-16.18,3.26-25.54,3.26
						c-22.42,0-29.5-7.09-29.5-21.99c0-13.33,8.5-23.27,36.73-23.27h9.23v-6.52c0-9.23-4.4-12.63-15.9-12.63
						c-8.93,0-15.75,1.99-18.87,1.99c-3.12,0-5.39-1.85-5.39-5.53c0-3.41,1.7-4.69,4.54-5.39c6.24-1.42,14.47-2.7,23.27-2.7
						c19.58,0,27.1,6.53,27.1,22.98V680.13L438.17,680.13z"/>
					<defs>
						
							<filter id="Adobe_OpacityMaskFilter_00000149360966499475920230000005007584662350812318_" filterUnits="userSpaceOnUse" x="459.6" y="585.22" width="15.03" height="105.27">
							<feColorMatrix  type="matrix" values="1 0 0 0 0  0 1 0 0 0  0 0 1 0 0  0 0 0 1 0"/>
						</filter>
					</defs>
					
						<mask maskUnits="userSpaceOnUse" x="459.6" y="585.22" width="15.03" height="105.27" id="mask-2_00000065785558703536194710000007734681589678738564_">
						<g style="filter:url(#Adobe_OpacityMaskFilter_00000149360966499475920230000005007584662350812318_);">
							<polygon id="path-1_00000009580280194414129540000016457284870136132484_" class="st346" points="300.55,585.22 
								713.12,585.22 713.12,690.86 300.55,690.86 							"/>
						</g>
					</mask>
					<path id="Fill-4" class="st351" d="M474.63,683.54c0,4.26-2.27,6.95-7.66,6.95c-5.39,0-7.37-2.69-7.37-6.95v-91.37
						c0-4.25,2.12-6.95,7.51-6.95c5.39,0,7.52,2.7,7.52,6.95V683.54"/>
					<defs>
						
							<filter id="Adobe_OpacityMaskFilter_00000088824866169308140120000014076423979637253305_" filterUnits="userSpaceOnUse" x="492.65" y="585.22" width="64.7" height="105.7">
							<feColorMatrix  type="matrix" values="1 0 0 0 0  0 1 0 0 0  0 0 1 0 0  0 0 0 1 0"/>
						</filter>
					</defs>
					
						<mask maskUnits="userSpaceOnUse" x="492.65" y="585.22" width="64.7" height="105.7" id="mask-2_00000088815109359673616440000012657192332974893215_">
						<g style="filter:url(#Adobe_OpacityMaskFilter_00000088824866169308140120000014076423979637253305_);">
							<polygon id="path-1_00000116950699381804683210000008609093014172465339_" class="st346" points="300.55,585.22 
								713.12,585.22 713.12,690.86 300.55,690.86 							"/>
						</g>
					</mask>
					<path id="Fill-5" class="st353" d="M542.44,628.77c-3.26-1.28-9.65-2.41-16.31-2.41c-16.32,0-18.15,12.91-18.15,25.68
						c0,13.9,1.41,27.38,18.15,27.38c6.67,0,14.04-1.28,16.31-2.13V628.77z M557.34,680.27c0,4.26-1.71,6.52-5.68,7.52
						c-6.24,1.7-15.88,3.12-26.38,3.12c-24.97,0-32.63-13.34-32.63-38.87c0-24.69,10.65-37.17,31.36-37.17
						c6.95,0,14.47,1.42,18.43,2.7v-25.4c0-4.25,2.13-6.95,7.52-6.95c5.39,0,7.38,2.7,7.38,6.95V680.27L557.34,680.27z"/>
					<defs>
						
							<filter id="Adobe_OpacityMaskFilter_00000084498777163647527770000007433884484839560345_" filterUnits="userSpaceOnUse" x="575.51" y="614.87" width="61.86" height="76.04">
							<feColorMatrix  type="matrix" values="1 0 0 0 0  0 1 0 0 0  0 0 1 0 0  0 0 0 1 0"/>
						</filter>
					</defs>
					
						<mask maskUnits="userSpaceOnUse" x="575.51" y="614.87" width="61.86" height="76.04" id="mask-2_00000041975301509416525360000006506499995822959531_">
						<g style="filter:url(#Adobe_OpacityMaskFilter_00000084498777163647527770000007433884484839560345_);">
							<polygon id="path-1_00000003803423711470885060000001728626719823354523_" class="st346" points="300.55,585.22 
								713.12,585.22 713.12,690.86 300.55,690.86 							"/>
						</g>
					</mask>
					<path id="Fill-6" class="st355" d="M623.6,646.51c-0.43-10.78-1.85-20.85-16.6-20.85c-14.61,0-16.46,10.21-16.74,20.85H623.6z
						 M629.98,655.87H590.4c0.15,12.62,2.7,23.41,20.43,23.41c8.09,0,15.33-1.99,18.02-1.99c3.12,0,5.53,1.85,5.53,5.53
						c0,3.4-1.84,4.97-4.68,5.67c-5.53,1.28-14.19,2.41-24.55,2.41c-23.27,0-29.65-13.48-29.65-38.87
						c0-24.26,9.22-37.17,31.92-37.17c21.98,0,29.94,12.34,29.94,34.05C637.36,653.17,635.38,655.87,629.98,655.87L629.98,655.87z"
						/>
					<defs>
						
							<filter id="Adobe_OpacityMaskFilter_00000113347300877822631230000008231413015812879242_" filterUnits="userSpaceOnUse" x="651.27" y="614.87" width="61.86" height="76.04">
							<feColorMatrix  type="matrix" values="1 0 0 0 0  0 1 0 0 0  0 0 1 0 0  0 0 0 1 0"/>
						</filter>
					</defs>
					
						<mask maskUnits="userSpaceOnUse" x="651.27" y="614.87" width="61.86" height="76.04" id="mask-2_00000158750128845762389130000005294071396432734107_">
						<g style="filter:url(#Adobe_OpacityMaskFilter_00000113347300877822631230000008231413015812879242_);">
							<polygon id="path-1_00000005967682898975553240000006712494943318436249_" class="st346" points="300.55,585.22 
								713.12,585.22 713.12,690.86 300.55,690.86 							"/>
						</g>
					</mask>
					<path id="Fill-7" class="st357" d="M699.36,646.51c-0.43-10.78-1.85-20.85-16.6-20.85c-14.61,0-16.46,10.21-16.74,20.85H699.36
						z M705.75,655.87h-39.59c0.15,12.62,2.71,23.41,20.44,23.41c8.09,0,15.33-1.99,18.01-1.99c3.13,0,5.54,1.85,5.54,5.53
						c0,3.4-1.85,4.97-4.68,5.67c-5.54,1.28-14.19,2.41-24.54,2.41c-23.27,0-29.65-13.48-29.65-38.87
						c0-24.26,9.22-37.17,31.92-37.17c22,0,29.94,12.34,29.94,34.05C713.12,653.17,711.14,655.87,705.75,655.87L705.75,655.87z"/>
				</g>
				<path id="Fill-9" class="st358" d="M805.21,723.68c0,4.26-2.27,6.95-7.66,6.95c-5.4,0-7.37-2.69-7.37-6.95v-31.5
					c0-20.71-3.27-25.4-16.46-25.4c-4.97,0-10.5,1-14.48,2.13v54.77c0,4.26-2.27,6.95-7.66,6.95c-5.39,0-7.38-2.69-7.38-6.95V665.8
					c0-4.26,1.71-6.53,5.68-7.52c6.1-1.56,15.32-3.26,24.68-3.26c26.39,0,30.65,8.66,30.65,37.17V723.68"/>
				<path id="Fill-10" class="st358" d="M798.39,516c-5.46,0-7.6,2.73-7.6,7.03v44.46h-35.75v-71.7c0-4.27-2.14-6.98-7.55-6.98
					c-5.42,0-7.55,2.71-7.55,6.98l0.02,71.7h-29.93v-32.4c0-16.46-7.52-22.98-27.1-22.98c-8.8,0-17.03,1.28-23.27,2.7
					c-2.83,0.71-4.54,1.98-4.54,5.39c0,3.68,2.27,5.53,5.39,5.53c3.12,0,9.93-1.99,18.87-1.99c11.5,0,15.9,3.4,15.9,12.63v31.12
					h-40.84c-3.25,0-5.31,1.63-5.31,5.75c0,4.12,2.06,5.74,5.31,5.74l147.72,0c2.12,0,3.85-1.72,3.85-3.84v-52.1
					C806,518.73,803.85,516,798.39,516"/>
				<path id="Fill-11" class="st358" d="M626.68,516c-5.46,0-7.6,2.73-7.6,7.03v44.46h-37.74v-44.51c0-4.27-2.14-6.98-7.55-6.98
					c-5.42,0-7.54,2.71-7.54,6.98v49.48c0,15.77-13.45,20.65-22.58,20.65c-9.13,0-22.58-4.88-22.58-20.65v-28.32
					c0-4.27-2.13-6.98-7.54-6.98c-5.41,0-7.55,2.71-7.55,6.98v28.32c0,20.36,15.87,31.76,37.7,32.14
					c19.37-0.34,33.98-9.37,37.03-25.62h49.72c2.12,0,3.85-1.72,3.85-3.84v-52.1C634.29,518.73,632.13,516,626.68,516"/>
				<path id="Fill-12" class="st358" d="M634.29,597.16c0,4.09-3.32,7.41-7.41,7.41c-4.09,0-7.41-3.32-7.41-7.41
					c0-4.09,3.32-7.41,7.41-7.41C630.98,589.76,634.29,593.07,634.29,597.16"/>
				<path id="Fill-13" class="st358" d="M614.7,597.16c0,4.09-3.31,7.41-7.4,7.41c-4.09,0-7.41-3.32-7.41-7.41
					c0-4.09,3.31-7.41,7.41-7.41C611.39,589.76,614.7,593.07,614.7,597.16"/>
				<path id="Fill-14" class="st358" d="M806,498.2c0,4.09-3.32,7.41-7.41,7.41c-4.09,0-7.41-3.32-7.41-7.41
					c0-4.09,3.32-7.41,7.41-7.41C802.68,490.79,806,494.11,806,498.2"/>
				<path id="Fill-15" class="st358" d="M786.41,498.2c0,4.09-3.32,7.41-7.41,7.41c-4.09,0-7.41-3.32-7.41-7.41
					c0-4.09,3.32-7.41,7.41-7.41C783.1,490.79,786.41,494.11,786.41,498.2"/>
				<path id="Fill-16" class="st358" d="M547.78,523.74c0,4.09-3.32,7.4-7.41,7.4s-7.41-3.31-7.41-7.4c0-4.09,3.32-7.41,7.41-7.41
					S547.78,519.65,547.78,523.74"/>
				<g id="Group-19">
					<g id="Clip-18">
						
							<linearGradient id="path-4_00000181089048908353298910000007834873556014350758_" gradientUnits="userSpaceOnUse" x1="-175.8735" y1="3825.752" x2="-171.8117" y2="3821.6724" gradientTransform="matrix(52.5961 0 0 -52.6042 9493.6855 201566.7188)">
							<stop  offset="0" style="stop-color:#255A73"/>
							<stop  offset="1" style="stop-color:#95C186"/>
						</linearGradient>
						
							<path id="path-4_00000151502258789729121170000006974500636629132706_" style="fill-rule:evenodd;clip-rule:evenodd;fill:url(#path-4_00000181089048908353298910000007834873556014350758_);" d="
							M350.08,267.44c21.67,0,41.38,11.42,52.23,29.68c4.86-1.23,9.87-1.85,14.95-1.85c16.23,0,31.49,6.32,42.96,17.79
							c15.32,15.32,21.18,37.33,15.94,57.91c18.26,10.85,29.68,30.56,29.68,52.23c0,21.67-11.42,41.37-29.68,52.23
							c5.24,20.59-0.62,42.59-15.94,57.91c-11.47,11.47-26.73,17.8-42.96,17.8c-5.08,0-10.09-0.62-14.95-1.85
							c-10.85,18.26-30.56,29.68-52.24,29.68c-21.67,0-41.38-11.42-52.22-29.68c-4.86,1.23-9.86,1.85-14.95,1.85
							c-16.24,0-31.5-6.32-42.97-17.8c-15.33-15.32-21.19-37.32-15.94-57.91c-17.54-10.42-28.76-29.01-29.63-49.66v-5.13
							c0.86-20.65,12.09-39.24,29.63-49.66c-5.24-20.59,0.62-42.59,15.94-57.91c11.48-11.47,26.74-17.79,42.97-17.79
							c5.08,0,10.08,0.62,14.95,1.85C308.7,278.86,328.41,267.44,350.08,267.44z M379.58,518.34l-62.19,27.31
							c7.97,9.51,19.84,15.23,32.69,15.23c15.83,0,30.15-8.67,37.55-22.4l0.22-0.42L379.58,518.34z M459.35,483.31l-33.35,14.64
							l-13.89,34.76c1.7,0.2,3.41,0.34,5.14,0.34c11.4,0,22.12-4.43,30.17-12.49C457.35,510.64,461.62,496.74,459.35,483.31z
							 M264.63,468.17l-22.46,9.49c-4.72,15.08-0.77,31.58,10.55,42.89c8.06,8.06,18.78,12.5,30.18,12.5c2.25,0,4.47-0.2,6.67-0.55
							l0.73-0.12L264.63,468.17z M344.4,434.44l-63.11,26.68l27.42,68.58l63.87-28.05L344.4,434.44z M402.38,508.33l-6.23,2.74
							l2.63,6.27L402.38,508.33z M426.09,399.9l-65.02,27.49l28.08,66.99l22.79-10.01l24.14-60.42L426.09,399.9z M446.02,447.86
							l-10.44,26.13l18.01-7.91L446.02,447.86z M232.25,387.16c-12.23,7.74-19.84,21.23-19.84,36.05c0,14.99,7.78,28.62,20.26,36.31
							l0.4,0.24l19.84-20.94L232.25,387.16z M469.78,388.39l-14.16,35.44l14.19,34.17c11.12-7.89,17.94-20.75,17.94-34.79
							C487.76,409.15,480.92,396.28,469.78,388.39z M325.25,388.75L274,442.86l0.59,1.46l62.83-26.56L325.25,388.75z M298.46,324.86
							l-51.18,51.18l19.32,48.32l51-53.84L298.46,324.86z M392.13,318.15l-53.28,56.24l15.22,36.31l65.08-27.51L392.13,318.15z
							 M449.68,389.93l-6.93,2.93l2.94,7.06L449.68,389.93z M417.26,313.36c-2.18,0-4.34,0.19-6.47,0.52l-0.8,0.13l25.82,62.14
							l22.81-9.64c3.67-14.45-0.44-29.89-11.19-40.65C439.38,317.8,428.66,313.36,417.26,313.36z M282.91,313.36
							c-11.4,0-22.12,4.44-30.18,12.5c-8.4,8.4-12.74,19.67-12.49,31.08l0.01,0.54l44.05-44.05
							C283.84,313.41,283.38,313.36,282.91,313.36z M350.08,285.53c-16.3,0-30.98,9.2-38.18,23.63l-0.22,0.44l19.52,46.55
							l51.99-54.88C375.22,291.47,363.17,285.53,350.08,285.53z"/>
					</g>
				</g>
			</g>
		</g>
	</g>
</g>
</svg>
